<svg xmlns="http://www.w3.org/2000/svg" viewBox="0 0 512 512"><path d="M437.02 74.98C388.67 26.63 324.38 0 256 0S123.33 26.63 74.98 74.98C26.63 123.33 0 187.62 0 256s26.63 132.67 74.98 181.02C123.33 485.37 187.62 512 256 512s132.67-26.63 181.02-74.98C485.37 388.67 512 324.38 512 256s-26.63-132.67-74.98-181.02zM256 491.6C126.1 491.6 20.4 385.9 20.4 256S126.1 20.4 256 20.4 491.6 126.1 491.6 256 385.9 491.6 256 491.6z"/><path d="M401.6 146.1c-13.93-13.9-36.57-13.9-50.5 0L200.93 296.3l-49.2-49.22c-13.93-13.92-36.57-13.92-50.5 0-13.9 13.92-13.9 36.56 0 50.48l74.46 74.46c6.75 6.74 15.7 10.45 25.24 10.45s18.5-3.7 25.25-10.46L401.6 196.6c13.9-13.93 13.9-36.58 0-50.5zm-14.43 36.06L211.74 357.6c-2.9 2.88-6.73 4.47-10.82 4.47s-7.92-1.6-10.8-4.48l-74.47-74.46c-5.96-5.97-5.96-15.68 0-21.64 2.98-2.98 6.9-4.47 10.82-4.47s7.84 1.5 10.82 4.47l56.4 56.42c4 4 10.45 4 14.44 0l157.4-157.4c5.96-5.96 15.66-5.96 21.63 0 5.96 5.97 5.96 15.68 0 21.64zM462.13 298.13c-5.46-1.4-11 1.9-12.4 7.37C427.18 394.06 347.5 455.9 256 455.9c-5.63 0-10.2 4.57-10.2 10.2 0 5.64 4.57 10.2 10.2 10.2 100.85 0 188.64-68.16 213.5-165.77 1.4-5.45-1.9-11-7.37-12.4zM466.1 245.8c-5.63 0-10.2 4.57-10.2 10.2 0 2.92-.06 5.86-.18 8.74-.25 5.63 4.12 10.4 9.75 10.63h.44c5.44 0 9.96-4.27 10.2-9.75.13-3.18.2-6.4.2-9.62 0-5.63-4.56-10.2-10.2-10.2z"/></svg>