<svg xmlns="http://www.w3.org/2000/svg" viewBox="0 0 60 60"><path d="M38.9 0H6.5v60h47V14.6L38.9 0zm.6 3.4L50.1 14H39.5V3.4zM8.5 58V2h29v14h14v42h-43z"/><path d="M42.5 21h-16c-.55 0-1 .45-1 1s.45 1 1 1h16c.55 0 1-.45 1-1s-.45-1-1-1zM22.88 18.22l-4.3 3.44-1.37-1.37c-.38-.4-1.02-.4-1.4 0s-.4 1.02 0 1.4l2 2c.2.2.44.3.7.3.22 0 .44-.07.62-.22l5-4c.44-.35.5-.97.16-1.4-.34-.44-.97-.5-1.4-.16zM42.5 32h-16c-.55 0-1 .45-1 1s.45 1 1 1h16c.55 0 1-.45 1-1s-.45-1-1-1zM22.88 29.22l-4.3 3.44-1.37-1.37c-.38-.4-1.02-.4-1.4 0s-.4 1.02 0 1.4l2 2c.2.2.44.3.7.3.22 0 .44-.07.62-.22l5-4c.44-.35.5-.97.16-1.4-.34-.44-.97-.5-1.4-.16zM42.5 43h-16c-.55 0-1 .45-1 1s.45 1 1 1h16c.55 0 1-.45 1-1s-.45-1-1-1zM22.88 40.22l-4.3 3.44-1.37-1.37c-.38-.4-1.02-.4-1.4 0s-.4 1.02 0 1.4l2 2c.2.2.44.3.7.3.22 0 .44-.07.62-.22l5-4c.44-.35.5-.97.16-1.4-.34-.44-.97-.5-1.4-.16z"/></svg>