<svg xmlns="http://www.w3.org/2000/svg" viewBox="0 0 463 463"><path d="M366.34 138.56l.16-.38.12-.32.1-.35.1-.37.06-.32c.02-.13.05-.27.06-.42l.03-.3.02-.45v-.13C367 60.78 306.2 0 231.5 0S96 60.78 96 135.5v.13c0 .16.02.3.03.46 0 .1 0 .2.03.28 0 .15.04.3.06.43l.06.33.1.38.1.36.12.32.16.38.13.28.2.4.07.12L186.25 288H159.5c-8.55 0-15.5 6.95-15.5 15.5v144c0 8.55 6.95 15.5 15.5 15.5h144c8.55 0 15.5-6.95 15.5-15.5v-144c0-8.55-6.95-15.5-15.5-15.5h-26.75l89.18-148.64.07-.13.2-.38.14-.3zM231.5 15c59.85 0 109.64 43.86 118.94 101.13-6.4-2.62-14.25-4.13-22.94-4.13-13.46 0-24.94 3.6-32 9.37-7.06-5.76-18.54-9.37-32-9.37s-24.94 3.6-32 9.37c-7.06-5.76-18.54-9.37-32-9.37s-24.94 3.6-32 9.37c-7.06-5.76-18.54-9.37-32-9.37-8.7 0-16.55 1.5-22.93 4.13C121.86 58.86 171.64 15 231.5 15zM159 313.6l17 17v89.8l-17 17V313.6zM272 384h-81v-17h81v17zm-81 32v-17h81v17h-81zm81-81v17h-81v-17h81zm-85.4 96h89.8l17 17H169.6l17-17zM287 420.4v-89.8l17-17v123.8l-17-17zM276.4 320h-89.8l-17-17h123.8l-17 17zM224 288h-2.92l-45.92-153.07c1.17-2.54 9.48-7.93 24.34-7.93 16.08 0 24.5 6.32 24.5 8.5V288zm15 0V135.5c0-2.19 8.42-8.5 24.5-8.5 14.86 0 23.17 5.4 24.34 7.93L241.92 288H239zM111.54 134.32c2.06-2.7 10.2-7.32 23.96-7.32 16.08 0 24.5 6.3 24.5 8.5v.14c0 .2.02.4.04.6 0 .1.03.23.05.35 0 .1.02.23.04.35l.14.57c.02.05.02.1.04.13v.04l.03.06L205.42 288h-1.67l-92.2-153.68zM257.58 288l45.07-150.24.02-.07v-.04c.03-.05.03-.1.04-.13.07-.2.12-.38.16-.58l.05-.35.06-.37.03-.6v-.13c0-2.18 8.42-8.5 24.5-8.5 13.76 0 21.9 4.62 23.96 7.33L259.26 288h-1.68z"/></svg>