<svg xmlns="http://www.w3.org/2000/svg" viewBox="0 0 512 512"><path d="M498.4 175.7L336.3 13.6C327.53 4.83 315.86 0 303.42 0c-12.44 0-24.12 4.83-32.87 13.58L13.57 270.56C4.82 279.3 0 291 0 303.43c0 12.44 4.82 24.1 13.57 32.86l20 19.98 134.36 134.37h-18.6c-5.9 0-10.67 4.78-10.67 10.67 0 5.9 4.78 10.67 10.67 10.67H362.65c5.9 0 10.67-4.8 10.67-10.68 0-5.9-4.78-10.66-10.67-10.66H249.2l249.2-249.23c18.13-18.12 18.13-47.6 0-65.72zm-15.07 50.65l-257 256.98c-4.7 4.72-11 7.3-17.73 7.32h-.08c-6.73 0-13.03-2.6-17.74-7.32L56.18 348.75 303 101.95c4.17-4.17 4.17-10.92 0-15.08-4.16-4.17-10.9-4.17-15.08 0L41.1 333.67 28.66 321.2c-4.72-4.7-7.32-11.03-7.32-17.77 0-6.75 2.6-13.06 7.33-17.78L285.64 28.67c4.72-4.73 11.03-7.33 17.78-7.33 6.74 0 13.06 2.6 17.78 7.33l57.7 57.7-246.8 246.8c-4.16 4.16-4.16 10.92 0 15.08 2.1 2.08 4.82 3.13 7.55 3.13 2.73 0 5.46-1.05 7.54-3.13L394 101.45l89.33 89.34c9.8 9.8 9.8 25.75 0 35.55z"/><path d="M262.8 308.06c-4.16-4.16-10.92-4.16-15.08 0L163.78 392c-4.16 4.16-4.16 10.92 0 15.08 2.08 2.1 4.8 3.13 7.54 3.13 2.73 0 5.46-1.04 7.55-3.12l83.93-83.93c4.17-4.17 4.17-10.92 0-15.1zM228.38 387.74l-34.43 34.43c-4.17 4.16-4.17 10.9 0 15.08 2.08 2.08 4.8 3.12 7.54 3.12 2.72 0 5.45-1.04 7.53-3.12l34.43-34.42c4.16-4.17 4.16-10.92 0-15.1-4.17-4.16-10.92-4.16-15.1 0zM260.05 356.06l-4.52 4.53c-4.17 4.15-4.17 10.9 0 15.07 2.08 2.1 4.8 3.13 7.54 3.13 2.73 0 5.46-1.04 7.54-3.13l4.54-4.52c4.16-4.17 4.16-10.92 0-15.08-4.17-4.17-10.92-4.17-15.1 0zM407.07 163.8c-2-2-4.7-3.13-7.54-3.13-2.83 0-5.54 1.12-7.54 3.12l-45.27 45.25c-2 2-3.12 4.7-3.12 7.54s1.13 5.53 3.13 7.53l30.17 30.17c2.1 2.08 4.82 3.12 7.55 3.12 2.73 0 5.46-1.04 7.54-3.12l45.24-45.25c4.17-4.17 4.17-10.92 0-15.1l-30.17-30.16zm-22.63 67.87l-15.08-15.08 30.17-30.18 15.08 15.1-30.16 30.15zM320.34 80.2c2.73 0 5.46-1.06 7.54-3.14l4.53-4.53c4.17-4.16 4.17-10.92 0-15.08-4.16-4.17-10.92-4.16-15.08 0l-4.53 4.53c-4.17 4.17-4.17 10.92 0 15.08 2.08 2.1 4.8 3.13 7.54 3.13zM107.22 358.06l-4.53 4.52c-4.18 4.17-4.18 10.92 0 15.1 2.07 2.07 4.8 3.1 7.53 3.1s5.46-1.03 7.54-3.1l4.53-4.54c4.16-4.16 4.16-10.92 0-15.08-4.17-4.17-10.92-4.17-15.08 0z"/></svg>