<svg xmlns="http://www.w3.org/2000/svg" viewBox="0 0 512 512"><path d="M408.74 143.26c-11.37-11.36-23.78-21.3-37-29.72l14.43-25 16.14 9.3c1.27.74 2.65 1.08 4 1.08 2.77 0 5.46-1.43 6.94-4 2.2-3.83.9-8.72-2.93-10.93l-45.87-26.5c-3.83-2.2-8.72-.9-10.93 2.93-2.2 3.83-.9 8.72 2.93 10.93l15.88 9.17-14.37 24.92c-28.7-15.4-60.65-24.1-93.93-25.3v-.96c18.24-3.72 32-19.88 32-39.2 0-22.06-17.94-40-40-40s-40 17.94-40 40c0 19.32 13.76 35.48 32 39.2v.96c-54.7 1.98-105.83 24.2-144.74 63.1C62.46 184.06 40 238.3 40 296s22.47 111.94 63.27 152.74C144.06 489.54 198.3 512 256 512s111.94-22.47 152.74-63.27C449.54 407.94 472 353.7 472 296s-22.47-111.94-63.26-152.74zM232 40c0-13.23 10.77-24 24-24s24 10.77 24 24c0 10.43-6.7 19.32-16 22.62V40c0-4.42-3.58-8-8-8s-8 3.58-8 8v22.62c-9.3-3.3-16-12.2-16-22.62zm24 456c-110.28 0-200-89.72-200-200S145.72 96 256 96s200 89.72 200 200-89.72 200-200 200z"/><path d="M412.77 199.63c-2.3-3.76-7.24-4.94-11-2.62-3.77 2.33-4.94 7.26-2.62 11.02C415.4 234.42 424 264.82 424 296c0 92.64-75.36 168-168 168S88 388.64 88 296s75.36-168 168-168c31.15 0 61.57 8.6 87.95 24.83 3.77 2.32 8.7 1.15 11-2.6 2.33-3.78 1.15-8.7-2.6-11.02C323.42 121.4 290.1 112 256 112c-101.46 0-184 82.54-184 184s82.54 184 184 184 184-82.54 184-184c0-34.13-9.42-67.46-27.23-96.37z"/><path d="M368 170.77c4.63 4.15 9.08 8.6 13.22 13.23 1.58 1.77 3.77 2.67 5.97 2.67 1.9 0 3.8-.68 5.32-2.04 3.3-2.95 3.57-8 .63-11.3-4.54-5.07-9.4-9.94-14.48-14.48-3.3-2.95-8.35-2.66-11.3.63-2.95 3.3-2.67 8.35.63 11.3zM305.94 152.44C290.3 146.98 273.5 144 256 144c-4.42 0-8 3.58-8 8v144c0 2.12.84 4.16 2.34 5.66l101.83 101.82c1.56 1.56 3.6 2.34 5.65 2.34s4.1-.78 5.66-2.34C392.18 374.78 408 336.6 408 296c0-12.75-1.6-25.14-4.56-36.98-.06-.34-.14-.66-.24-1-3.2-12.35-7.9-24.1-13.93-35.05-.22-.52-.5-1-.83-1.5-5.7-10.07-12.5-19.45-20.27-27.94-.24-.32-.5-.63-.78-.92-.17-.15-.33-.3-.5-.43-16.38-17.5-36.84-31.1-59.84-39.34-.36-.16-.74-.3-1.13-.4zM323 177.7l-59 59v-25.4l41.85-41.83c5.93 2.34 11.66 5.1 17.15 8.22zm27.45 20.54L264 284.7v-25.4l72.7-72.7c4.84 3.6 9.43 7.47 13.75 11.64zm21.4 26.6L284 312.7 271.3 300l90-89.98c3.83 4.7 7.36 9.64 10.55 14.8zm14.76 33.24l-78.6 78.6L295.3 324l84.43-84.42c2.72 5.95 5.03 12.13 6.88 18.5zM392 296c0 1.6-.04 3.2-.1 4.78l-59.9 59.9L319.3 348l71.33-71.3c.9 6.3 1.37 12.75 1.37 19.3zM288.7 163.98l-24.7 24.7v-28.45c8.46.5 16.72 1.78 24.7 3.75zm68.96 222.37L343.3 372l45.22-45.2c-5.07 22-15.58 42.4-30.86 59.55z"/></svg>