<svg xmlns="http://www.w3.org/2000/svg" viewBox="0 0 512 512"><path d="M461.1 42.42H50.9C22.84 42.42 0 65.25 0 93.32v49.7c0 5.63 4.57 10.2 10.2 10.2h8.16V434.4c0 19.4 15.78 35.18 35.19 35.18h404.9c19.4 0 35.2-15.78 35.2-35.2V153.23h8.15c5.63 0 10.2-4.57 10.2-10.2v-49.7c0-28.07-22.83-50.9-50.9-50.9zm12.14 391.97c0 8.15-6.63 14.78-14.8 14.78H53.55c-8.15 0-14.78-6.63-14.78-14.8V153.23h434.48V434.4zM491.6 132.8H20.4v-39.5c0-16.82 13.68-30.5 30.5-30.5h410.2c16.82 0 30.5 13.68 30.5 30.5v39.5z"/><path d="M313.02 179.92H198.98c-24.24 0-43.95 19.72-43.95 43.95 0 24.24 19.7 43.95 43.95 43.95h114.04c24.24 0 43.95-19.7 43.95-43.95 0-24.23-19.7-43.95-43.95-43.95zm0 67.5H198.98c-13 0-23.55-10.56-23.55-23.55 0-12.98 10.56-23.55 23.55-23.55h114.04c13 0 23.55 10.57 23.55 23.55 0 13-10.56 23.55-23.55 23.55zM366.15 298.23h-220.3c-5.63 0-10.2 4.57-10.2 10.2v102c0 5.63 4.57 10.2 10.2 10.2h220.3c5.63 0 10.2-4.57 10.2-10.2v-102c0-5.63-4.57-10.2-10.2-10.2zm-10.2 102h-199.9v-81.6h199.9v81.6z"/><path d="M321.27 348.2h-6.12c-5.63 0-10.2 4.58-10.2 10.2 0 5.64 4.57 10.2 10.2 10.2h6.12c5.64 0 10.2-4.56 10.2-10.2 0-5.62-4.56-10.2-10.2-10.2zM275.38 348.2h-84.66c-5.63 0-10.2 4.58-10.2 10.2 0 5.64 4.57 10.2 10.2 10.2h84.66c5.63 0 10.2-4.56 10.2-10.2 0-5.62-4.57-10.2-10.2-10.2z"/></svg>