<svg xmlns="http://www.w3.org/2000/svg" viewBox="0 0 511.999 511.999"><path d="M511.56 261.84l-34.13-102.4c-1.16-3.5-4.42-5.84-8.1-5.84h-17.06V93.87c0-4.7-3.82-8.54-8.53-8.54h-102.4V42.67c0-4.7-3.82-8.54-8.54-8.54H162.13c-4.72 0-8.53 3.83-8.53 8.54v42.66H68.27c-4.72 0-8.53 3.83-8.53 8.54v59.73H42.66c-3.5 0-6.62 2.12-7.92 5.36L.6 244.3c-1.04 2.63-.72 5.6.86 7.95C3.06 254.6 5.7 256 8.53 256h25.6v213.33c0 4.7 3.8 8.54 8.53 8.54H469.33c4.72 0 8.53-3.83 8.53-8.54V273.07h25.6c2.75 0 5.32-1.32 6.93-3.55 1.6-2.22 2.03-5.08 1.16-7.68zM435.2 153.6H281.6v-51.2h153.6v51.2zM170.66 51.2h153.6v34.13h-51.2c-4.7 0-8.53 3.82-8.53 8.53v59.74h-51.2V93.87c0-4.7-3.82-8.54-8.53-8.54h-34.14V51.2zM76.8 102.4h119.47v51.2H76.8v-51.2zm-28.36 68.27h288.83l-27.32 68.26H21.13l27.3-68.26zM51.2 256h264.53c.74 0 1.47-.12 2.16-.3 1.85-.5 3.5-1.6 4.64-3.12.45-.6.83-1.23 1.12-1.94l8.85-22.15 8.83-22.05V460.8H51.2V256zm409.6 204.8H358.4V170.67h2.38l22.52 67.53 9.67 29.03c.13.4.3.78.5 1.14 1.23 2.48 3.6 4.2 6.36 4.6.4.06.8.1 1.23.1h59.74V460.8zm8.53-204.8h-62.1l-7-21-21.46-64.34h84.42L491.6 256h-22.3z"/><path d="M281.6 307.2H110.93c-4.7 0-8.53 3.82-8.53 8.53v102.4c0 4.7 3.82 8.54 8.53 8.54H281.6c4.7 0 8.53-3.83 8.53-8.54v-102.4c0-4.7-3.82-8.53-8.53-8.53zm-8.53 102.4h-153.6v-85.33h153.6v85.33z"/><path d="M153.6 358.4h17.07c4.7 0 8.53-3.82 8.53-8.53 0-4.7-3.82-8.54-8.53-8.54H153.6c-4.72 0-8.53 3.83-8.53 8.54 0 4.7 3.8 8.53 8.53 8.53zM238.93 375.47h-17.07c-4.72 0-8.53 3.82-8.53 8.53s3.82 8.53 8.53 8.53h17.07c4.72 0 8.53-3.82 8.53-8.53s-3.8-8.53-8.53-8.53zM204.8 358.4h34.13c4.72 0 8.53-3.82 8.53-8.53 0-4.7-3.8-8.54-8.53-8.54H204.8c-4.72 0-8.54 3.83-8.54 8.54 0 4.7 3.82 8.53 8.54 8.53zM153.6 392.53h42.67c4.7 0 8.53-3.82 8.53-8.53s-3.82-8.53-8.54-8.53H153.6c-4.72 0-8.53 3.82-8.53 8.53s3.8 8.53 8.53 8.53z"/></svg>